<svg width="80" height="80" viewBox="0 0 80 80" fill="none" xmlns="http://www.w3.org/2000/svg">
<rect width="80" height="80" fill="#F2F2F2"/>
<g id="1_Home_Agency_1440" clip-path="url(#clip0_0_1)">
<rect width="1440" height="17296" transform="translate(-573 -5648)" fill="white"/>
<rect id="bg" x="-573" y="-4768" width="1440" height="20000" fill="#FDF0E9"/>
<rect id="Rectangle" x="-47.5" y="-47.5" width="390" height="399" stroke="#F3D1BF"/>
<circle id="Oval" cx="40" cy="40" r="40" fill="#EF6C57"/>
<path id="Combined Shape" fill-rule="evenodd" clip-rule="evenodd" d="M37 26C35.3431 26 34 27.3431 34 29V30H27C25.3431 30 24 31.3431 24 33V35.768L39.228 39.828C39.7339 39.9627 40.2661 39.9627 40.772 39.828L56 35.768V33C56 31.3431 54.6569 30 53 30H46V29C46 27.3431 44.6569 26 43 26H37ZM37 28H43C43.5523 28 44 28.4477 44 29V30H36V29C36 28.4477 36.4477 28 37 28ZM27 52C25.3431 52 24 50.6569 24 49V37.7L39.742 41.894C39.911 41.9391 40.089 41.9391 40.258 41.894L56 37.7V49C56 50.6569 54.6569 52 53 52H27Z" fill="white"/>
</g>
<defs>
<clipPath id="clip0_0_1">
<rect width="1440" height="17296" fill="white" transform="translate(-573 -5648)"/>
</clipPath>
</defs>
</svg>
