<svg width="1432" height="1161" viewBox="0 0 1432 1161" fill="none" xmlns="http://www.w3.org/2000/svg">
<path opacity="0.5" d="M305.945 86.6942C190.678 187.217 172.815 377.298 94.7494 517.527C67.5739 566.322 32.4595 609.992 14.1389 664.123C-27.9221 788.026 29.9659 928.572 107.447 1026.98C144.393 1073.93 187.548 1116.94 239.762 1136.72C279.914 1151.94 322.968 1152.57 365.232 1152.97L1105.69 1160.9C1188.36 1161.77 1280.22 1158.62 1339.66 1092.21C1380.62 1046.48 1397.27 979.692 1411.39 915.944C1428.74 837.613 1444.47 752.546 1417.47 677.94C1386.63 592.582 1308.64 544.21 1260.19 470.555C1181.57 351.223 1183.37 170.731 1083.25 75.4664C1036.5 31.0041 974.824 13.5679 914.722 4.84978C801.415 -11.6089 694.087 19.4592 582.815 15.1266C487.7 11.428 384.851 17.8741 305.945 86.6942Z" fill="#E7ECFF"/>
</svg>
